<svg width="38" height="38" xmlns="http://www.w3.org/2000/svg"><rect x="0" y="0" width="38" height="38" fill="#000"></rect><rect x="3" y="3" width="10" height="10" fill="#ff8800"></rect><rect x="14" y="3" width="10" height="10" fill="#0000ff"></rect><rect x="25" y="3" width="10" height="10" fill="#ff0000"></rect><rect x="3" y="14" width="10" height="10" fill="#fff"></rect><rect x="14" y="14" width="10" height="10" fill="#ff8800"></rect><rect x="25" y="14" width="10" height="10" fill="#ffff00"></rect><rect x="3" y="25" width="10" height="10" fill="#0000ff"></rect><rect x="14" y="25" width="10" height="10" fill="#ff8800"></rect><rect x="25" y="25" width="10" height="10" fill="#ffff00"></rect><rect x="3" y="0" width="10" height="2" fill="#ffff00"></rect><rect x="14" y="0" width="10" height="2" fill="#ffff00"></rect><rect x="25" y="0" width="10" height="2" fill="#ffff00"></rect><rect x="36" y="3" width="2" height="10" fill="#00ff00"></rect><rect x="36" y="14" width="2" height="10" fill="#ff8800"></rect><rect x="36" y="25" width="2" height="10" fill="#0000ff"></rect><rect x="3" y="36" width="10" height="2" fill="#fff"></rect><rect x="14" y="36" width="10" height="2" fill="#00ff00"></rect><rect x="25" y="36" width="10" height="2" fill="#ff8800"></rect><rect x="0" y="3" width="2" height="10" fill="#00ff00"></rect><rect x="0" y="14" width="2" height="10" fill="#ff8800"></rect><rect x="0" y="25" width="2" height="10" fill="#ff8800"></rect></svg>