<svg width="142" height="106" xmlns="http://www.w3.org/2000/svg"><rect x="0" y="36" width="34" height="34" fill="#000"></rect><rect x="1" y="37" width="10" height="10" fill="#ff8800"></rect><rect x="12" y="37" width="10" height="10" fill="#0000ff"></rect><rect x="23" y="37" width="10" height="10" fill="#ff0000"></rect><rect x="1" y="48" width="10" height="10" fill="#fff"></rect><rect x="12" y="48" width="10" height="10" fill="#ff8800"></rect><rect x="23" y="48" width="10" height="10" fill="#ffff00"></rect><rect x="1" y="59" width="10" height="10" fill="#0000ff"></rect><rect x="12" y="59" width="10" height="10" fill="#ff8800"></rect><rect x="23" y="59" width="10" height="10" fill="#ffff00"></rect><rect x="36" y="0" width="34" height="34" fill="#000"></rect><rect x="37" y="1" width="10" height="10" fill="#ffff00"></rect><rect x="48" y="1" width="10" height="10" fill="#ff8800"></rect><rect x="59" y="1" width="10" height="10" fill="#fff"></rect><rect x="37" y="12" width="10" height="10" fill="#ffff00"></rect><rect x="48" y="12" width="10" height="10" fill="#fff"></rect><rect x="59" y="12" width="10" height="10" fill="#ff0000"></rect><rect x="37" y="23" width="10" height="10" fill="#ffff00"></rect><rect x="48" y="23" width="10" height="10" fill="#ffff00"></rect><rect x="59" y="23" width="10" height="10" fill="#fff"></rect><rect x="36" y="36" width="34" height="34" fill="#000"></rect><rect x="37" y="37" width="10" height="10" fill="#00ff00"></rect><rect x="48" y="37" width="10" height="10" fill="#00ff00"></rect><rect x="59" y="37" width="10" height="10" fill="#ff0000"></rect><rect x="37" y="48" width="10" height="10" fill="#ff8800"></rect><rect x="48" y="48" width="10" height="10" fill="#00ff00"></rect><rect x="59" y="48" width="10" height="10" fill="#fff"></rect><rect x="37" y="59" width="10" height="10" fill="#0000ff"></rect><rect x="48" y="59" width="10" height="10" fill="#00ff00"></rect><rect x="59" y="59" width="10" height="10" fill="#00ff00"></rect><rect x="36" y="72" width="34" height="34" fill="#000"></rect><rect x="37" y="73" width="10" height="10" fill="#ff8800"></rect><rect x="48" y="73" width="10" height="10" fill="#fff"></rect><rect x="59" y="73" width="10" height="10" fill="#ff0000"></rect><rect x="37" y="84" width="10" height="10" fill="#00ff00"></rect><rect x="48" y="84" width="10" height="10" fill="#ffff00"></rect><rect x="59" y="84" width="10" height="10" fill="#ffff00"></rect><rect x="37" y="95" width="10" height="10" fill="#fff"></rect><rect x="48" y="95" width="10" height="10" fill="#ff0000"></rect><rect x="59" y="95" width="10" height="10" fill="#ffff00"></rect><rect x="72" y="36" width="34" height="34" fill="#000"></rect><rect x="73" y="37" width="10" height="10" fill="#0000ff"></rect><rect x="84" y="37" width="10" height="10" fill="#00ff00"></rect><rect x="95" y="37" width="10" height="10" fill="#ff8800"></rect><rect x="73" y="48" width="10" height="10" fill="#0000ff"></rect><rect x="84" y="48" width="10" height="10" fill="#ff0000"></rect><rect x="95" y="48" width="10" height="10" fill="#0000ff"></rect><rect x="73" y="59" width="10" height="10" fill="#fff"></rect><rect x="84" y="59" width="10" height="10" fill="#ff0000"></rect><rect x="95" y="59" width="10" height="10" fill="#ff0000"></rect><rect x="108" y="36" width="34" height="34" fill="#000"></rect><rect x="109" y="37" width="10" height="10" fill="#00ff00"></rect><rect x="120" y="37" width="10" height="10" fill="#0000ff"></rect><rect x="131" y="37" width="10" height="10" fill="#00ff00"></rect><rect x="109" y="48" width="10" height="10" fill="#ff0000"></rect><rect x="120" y="48" width="10" height="10" fill="#0000ff"></rect><rect x="131" y="48" width="10" height="10" fill="#ff8800"></rect><rect x="109" y="59" width="10" height="10" fill="#0000ff"></rect><rect x="120" y="59" width="10" height="10" fill="#fff"></rect><rect x="131" y="59" width="10" height="10" fill="#ff8800"></rect></svg>